<svg width="19" height="18" viewBox="0 0 19 18" fill="none" xmlns="http://www.w3.org/2000/svg">
<g clip-path="url(#clip0_305_522)">
<path d="M18.4914 9.16838C18.4914 8.43093 18.4302 7.89279 18.2977 7.33472H9.67932V10.6632H14.7381C14.6361 11.4904 14.0854 12.7361 12.8615 13.5732L12.8443 13.6846L15.5693 15.7472L15.758 15.7657C17.4919 14.201 18.4914 11.899 18.4914 9.16838Z" fill="#4285F4"/>
<path d="M9.67932 17.9382C12.1577 17.9382 14.2383 17.1409 15.758 15.7657L12.8615 13.5732C12.0863 14.1014 11.046 14.4701 9.67932 14.4701C7.25192 14.4701 5.1917 12.9056 4.45728 10.743L4.34963 10.752L1.51618 12.8946L1.47913 12.9952C2.98859 15.9251 6.08917 17.9382 9.67932 17.9382Z" fill="#34A853"/>
<path d="M4.45726 10.743C4.26348 10.1849 4.15133 9.58692 4.15133 8.96908C4.15133 8.35117 4.26348 7.75325 4.44706 7.19519L4.44193 7.07633L1.57297 4.89929L1.4791 4.94292C0.856977 6.15874 0.5 7.52406 0.5 8.96908C0.5 10.4141 0.856977 11.7793 1.4791 12.9952L4.45726 10.743Z" fill="#FBBC05"/>
<path d="M9.67932 3.46802C11.403 3.46802 12.5657 4.19551 13.2286 4.80346L15.8192 2.33196C14.2282 0.886946 12.1577 0 9.67932 0C6.08917 0 2.98859 2.01305 1.47913 4.94292L4.44709 7.19519C5.1917 5.03265 7.25192 3.46802 9.67932 3.46802Z" fill="#EB4335"/>
</g>
<defs>
<clipPath id="clip0_305_522">
<rect width="18" height="18" fill="white" transform="translate(0.5)"/>
</clipPath>
</defs>
</svg>
