<svg width="18" height="18" viewBox="0 0 18 19" fill="none" xmlns="http://www.w3.org/2000/svg">
<path d="M8.99962 1.62793C9.41385 1.62793 9.74962 1.96372 9.74962 2.37793V4.62793C9.74962 5.04214 9.41385 5.37793 8.99962 5.37793C8.5854 5.37793 8.24962 5.04214 8.24962 4.62793V2.37793C8.24962 1.96372 8.5854 1.62793 8.99962 1.62793ZM8.99962 12.8779C9.41385 12.8779 9.74962 13.2137 9.74962 13.6279V15.8779C9.74962 16.2922 9.41385 16.6279 8.99962 16.6279C8.5854 16.6279 8.24962 16.2922 8.24962 15.8779V13.6279C8.24962 13.2137 8.5854 12.8779 8.99962 12.8779ZM15.4948 5.37793C15.7019 5.73665 15.579 6.19534 15.2203 6.40244L13.2717 7.52744C12.913 7.73458 12.4543 7.61165 12.2472 7.25293C12.0401 6.89421 12.163 6.43552 12.5217 6.22841L14.4703 5.10341C14.829 4.8963 15.2877 5.01921 15.4948 5.37793ZM5.75201 11.0029C5.95912 11.3617 5.83621 11.8204 5.47749 12.0274L3.52894 13.1524C3.17021 13.3596 2.71152 13.2367 2.50441 12.8779C2.29731 12.5192 2.42021 12.0605 2.77894 11.8534L4.72749 10.7284C5.08621 10.5213 5.5449 10.6442 5.75201 11.0029ZM15.4948 12.8779C15.2877 13.2367 14.829 13.3596 14.4703 13.1524L12.5217 12.0274C12.163 11.8204 12.0401 11.3617 12.2472 11.0029C12.4543 10.6442 12.913 10.5213 13.2717 10.7284L15.2203 11.8534C15.579 12.0605 15.7019 12.5192 15.4948 12.8779ZM5.75201 7.25293C5.5449 7.61165 5.08621 7.73458 4.72749 7.52744L2.77894 6.40244C2.42021 6.19534 2.29731 5.73665 2.50441 5.37793C2.71152 5.01921 3.17021 4.8963 3.52894 5.10341L5.47749 6.22841C5.83621 6.43552 5.95912 6.89421 5.75201 7.25293Z" fill="currentColor"/>
</svg>
