<svg width="24" height="24" viewBox="0 0 24 25" fill="none" xmlns="http://www.w3.org/2000/svg">
<path d="M11.9995 2.12793C12.5518 2.12793 12.9995 2.57565 12.9995 3.12793V6.12793C12.9995 6.68021 12.5518 7.12793 11.9995 7.12793C11.4472 7.12793 10.9995 6.68021 10.9995 6.12793V3.12793C10.9995 2.57565 11.4472 2.12793 11.9995 2.12793ZM11.9995 17.1279C12.5518 17.1279 12.9995 17.5756 12.9995 18.1279V21.1279C12.9995 21.6802 12.5518 22.1279 11.9995 22.1279C11.4472 22.1279 10.9995 21.6802 10.9995 21.1279V18.1279C10.9995 17.5756 11.4472 17.1279 11.9995 17.1279ZM20.6597 7.12793C20.9359 7.60622 20.772 8.21781 20.2937 8.49395L17.6956 9.99395C17.2173 10.2701 16.6057 10.1062 16.3296 9.62793C16.0535 9.14964 16.2173 8.53805 16.6956 8.26191L19.2937 6.7619C19.772 6.48576 20.3836 6.64964 20.6597 7.12793ZM7.66935 14.6279C7.94549 15.1062 7.78161 15.7178 7.30332 15.9939L4.70525 17.4939C4.22695 17.7701 3.61536 17.6062 3.33922 17.1279C3.06308 16.6496 3.22695 16.038 3.70525 15.7619L6.30332 14.2619C6.78161 13.9857 7.3932 14.1496 7.66935 14.6279ZM20.6597 17.1279C20.3836 17.6062 19.772 17.7701 19.2937 17.4939L16.6956 15.9939C16.2173 15.7178 16.0535 15.1062 16.3296 14.6279C16.6057 14.1496 17.2173 13.9857 17.6956 14.2619L20.2937 15.7619C20.772 16.038 20.9359 16.6496 20.6597 17.1279ZM7.66935 9.62793C7.3932 10.1062 6.78161 10.2701 6.30332 9.99395L3.70525 8.49395C3.22695 8.21781 3.06308 7.60622 3.33922 7.12793C3.61536 6.64964 4.22695 6.48576 4.70525 6.7619L7.30332 8.26191C7.78161 8.53805 7.94549 9.14964 7.66935 9.62793Z" fill="currentColor"/>
</svg>
