<svg width="92" height="24" viewBox="0 0 92 24" fill="none" xmlns="http://www.w3.org/2000/svg">
<path d="M12.016 11.6402C11.3621 11.535 10.7226 11.8836 10.4563 12.4901C10.3055 12.8336 10.1554 13.1948 10.0064 13.5746C9.97388 13.6576 10.0064 13.7523 10.085 13.7944C10.6843 14.1157 11.5997 14.4177 12.5169 14.5615C12.8201 14.609 13.1187 14.6402 13.4041 14.6575C14.1701 14.7037 14.7099 13.99 14.6616 13.2241C14.6226 12.6047 14.2083 12.0861 13.6032 11.9482C13.0822 11.8294 12.5505 11.7262 12.016 11.6402Z" fill="currentColor"/>
<path d="M11.9205 9.70736C12.7252 8.45149 13.528 7.60681 14.29 7.04489C14.6934 6.74744 15.1709 7.17048 15.0498 7.6568C15.0168 7.78939 14.9859 7.92309 14.9571 8.05771C14.8617 8.50396 14.7862 8.9721 14.7304 9.46C14.6493 10.1701 13.9658 10.6802 13.2653 10.5381C12.9384 10.4718 12.5835 10.4063 12.2265 10.3509C11.9233 10.3039 11.7551 9.96581 11.9205 9.70736Z" fill="currentColor"/>
<path fill-rule="evenodd" clip-rule="evenodd" d="M1.31802 1.31802C0 2.63604 0 4.75736 0 9V15C0 19.2426 0 21.364 1.31802 22.682C2.63604 24 4.75736 24 9 24H15C19.2426 24 21.364 24 22.682 22.682C24 21.364 24 19.2426 24 15V9C24 4.75736 24 2.63604 22.682 1.31802C21.364 0 19.2426 0 15 0H9C4.75736 0 2.63604 0 1.31802 1.31802ZM16.5286 4.51822C16.5851 4.5096 16.6416 4.5017 16.6981 4.49448C17.3416 4.41216 17.6587 5.38642 17.3248 5.94266C17.2242 6.11024 17.1297 6.28809 17.0413 6.4758C16.5971 7.41919 16.3079 8.61189 16.1826 10.0039C16.0372 11.6185 17.1843 12.9535 18.556 13.8177C20.081 14.7784 20.7412 15.9223 19.7465 17.068C17.8552 19.2465 13.2809 20.9301 7.71997 17.9931C5.54041 16.842 1.90241 13.0799 4.94478 11.8258C5.4522 11.6533 6.0278 11.5301 6.65099 11.4513C8.25669 11.2484 9.72503 10.3778 10.5875 9.00831C12.4655 6.02652 14.5039 4.84126 16.4785 4.52602L16.5286 4.51822Z" fill="currentColor"/>
<path d="M32.052 19H30.216L34.968 5.986H36.93L41.7 19H39.846L38.676 15.76H33.204L32.052 19ZM35.724 8.794L33.744 14.23H38.154L36.156 8.794C36.066 8.542 35.976 8.236 35.94 8.038C35.904 8.218 35.814 8.524 35.724 8.794ZM42.602 22.942V10.198H44.132L44.258 11.782C44.852 10.576 46.04 9.946 47.444 9.946C49.964 9.946 51.53 11.836 51.53 14.536C51.53 17.218 50.054 19.234 47.444 19.234C46.04 19.234 44.87 18.64 44.294 17.56V22.942H42.602ZM44.312 14.608C44.312 16.408 45.356 17.704 47.084 17.704C48.812 17.704 49.838 16.408 49.838 14.608C49.838 12.79 48.812 11.494 47.084 11.494C45.356 11.494 44.312 12.772 44.312 14.608ZM52.8549 22.942V10.198H54.3849L54.5109 11.782C55.1049 10.576 56.2929 9.946 57.6969 9.946C60.2169 9.946 61.7829 11.836 61.7829 14.536C61.7829 17.218 60.3069 19.234 57.6969 19.234C56.2929 19.234 55.1229 18.64 54.5469 17.56V22.942H52.8549ZM54.5649 14.608C54.5649 16.408 55.6089 17.704 57.3369 17.704C59.0649 17.704 60.0909 16.408 60.0909 14.608C60.0909 12.79 59.0649 11.494 57.3369 11.494C55.6089 11.494 54.5649 12.772 54.5649 14.608ZM64.8813 19L61.0113 5.986H62.8473L65.2233 13.942C65.4033 14.626 65.5833 15.31 65.7633 16.3C65.9793 15.256 66.1773 14.626 66.3753 13.942L68.8413 5.986H70.7493L73.1973 13.942C73.4133 14.644 73.5933 15.328 73.7913 16.3C74.0073 15.202 74.1873 14.536 74.3673 13.96L76.7613 5.986H78.5613L74.6373 19H72.9453L69.7953 8.704L66.6093 19H64.8813ZM80.3412 8.11C79.7292 8.11 79.2252 7.606 79.2252 6.994C79.2252 6.364 79.7292 5.878 80.3412 5.878C80.9532 5.878 81.4572 6.364 81.4572 6.994C81.4572 7.606 80.9532 8.11 80.3412 8.11ZM79.5132 19V10.198H81.2052V19H79.5132ZM89.4397 19H82.5817V17.632L87.3337 11.62H82.5817V10.198H89.4397V11.584L84.6517 17.578H89.4397V19Z" fill="currentColor"/>
</svg>
