<svg width="96" height="96" viewBox="0 0 96 96" fill="none" xmlns="http://www.w3.org/2000/svg">
<path d="M48 88C25.9086 88 8 70.0912 8 48C8 25.9086 25.9086 8 48 8C70.0912 8 88 25.9086 88 48C88 70.0912 70.0912 88 48 88ZM48 80C65.6732 80 80 65.6732 80 48C80 30.3269 65.6732 16 48 16C30.3269 16 16 30.3269 16 48C16 65.6732 30.3269 80 48 80ZM44 60H52V68H44V60ZM52 53.4204V56H44V50C44 47.7908 45.7908 46 48 46C51.3136 46 54 43.3136 54 40C54 36.6863 51.3136 34 48 34C45.0892 34 42.6624 36.0729 42.1152 38.8231L34.2692 37.2538C35.5455 30.8368 41.208 26 48 26C55.732 26 62 32.268 62 40C62 46.342 57.7828 51.6992 52 53.4204Z" fill="#8F9FAA"/>
</svg>
