<svg width="96" height="96" viewBox="0 0 96 96" fill="none" xmlns="http://www.w3.org/2000/svg">
<path d="M80 48C80 30.3269 65.6732 16 48 16C30.3269 16 16 30.3269 16 48V64H28C30.2091 64 32 65.7908 32 68V80H64V68C64 65.7908 65.7908 64 68 64H80V48ZM72 72V84C72 86.2092 70.2092 88 68 88H28C25.7909 88 24 86.2092 24 84V72H12C9.79088 72 8 70.2092 8 68V48C8 25.9086 25.9086 8 48 8C70.0912 8 88 25.9086 88 48V68C88 70.2092 86.2092 72 84 72H72ZM30 56C26.6863 56 24 53.3136 24 50C24 46.6864 26.6863 44 30 44C33.3137 44 36 46.6864 36 50C36 53.3136 33.3137 56 30 56ZM66 56C62.6864 56 60 53.3136 60 50C60 46.6864 62.6864 44 66 44C69.3136 44 72 46.6864 72 50C72 53.3136 69.3136 56 66 56Z" fill="currentColor"/>
</svg>
