<svg width="18" height="18" viewBox="0 0 18 18" fill="none" xmlns="http://www.w3.org/2000/svg">
<path d="M6 5.25C3.92894 5.25 2.25 6.92894 2.25 9C2.25 11.071 3.92894 12.75 6 12.75H12C14.071 12.75 15.75 11.071 15.75 9C15.75 6.92894 14.071 5.25 12 5.25H6ZM6 3.75H12C14.8995 3.75 17.25 6.10051 17.25 9C17.25 11.8995 14.8995 14.25 12 14.25H6C3.10051 14.25 0.75 11.8995 0.75 9C0.75 6.10051 3.10051 3.75 6 3.75ZM12 11.25C10.7574 11.25 9.75 10.2427 9.75 9C9.75 7.75733 10.7574 6.75 12 6.75C13.2426 6.75 14.25 7.75733 14.25 9C14.25 10.2427 13.2426 11.25 12 11.25Z" fill="currentColor"/>
</svg>
