<svg width="18" height="18" viewBox="0 0 18 18" fill="none" xmlns="http://www.w3.org/2000/svg">
<path d="M9 10L2.08301 14.6113C1.91069 14.7262 1.67786 14.6796 1.56298 14.5073C1.52192 14.4457 1.5 14.3733 1.5 14.2993V3.70068C1.5 3.49358 1.66789 3.32568 1.875 3.32568C1.94903 3.32568 2.02141 3.3476 2.08301 3.38867L9 8V3.70068C9 3.49358 9.16792 3.32568 9.375 3.32568C9.44903 3.32568 9.5214 3.3476 9.58305 3.38867L17.532 8.68797C17.7043 8.80287 17.7509 9.03567 17.636 9.20802C17.6085 9.2492 17.5732 9.28452 17.532 9.31197L9.58305 14.6113C9.4107 14.7262 9.1779 14.6796 9.063 14.5073C9.0219 14.4457 9 14.3733 9 14.2993V10ZM7.7958 8.99997L3 5.80277V12.1972L7.7958 8.99997ZM10.5 5.80277V12.1972L15.2958 8.99997L10.5 5.80277Z" fill="currentColor"/>
</svg>
